<svg xmlns="http://www.w3.org/2000/svg" xmlns:xlink="http://www.w3.org/1999/xlink" version="1.1" x="0px" y="0px" viewBox="0 0 512 640" style="enable-background:new 0 0 512 512;" xml:space="preserve"><g><g><g><path d="M256,313.6c-31.7,0-57.6-25.8-57.6-57.6s25.8-57.6,57.6-57.6s57.6,25.8,57.6,57.6S287.7,313.6,256,313.6z      M256,222.4c-18.5,0-33.6,15.1-33.6,33.6s15.1,33.6,33.6,33.6s33.6-15.1,33.6-33.6S274.5,222.4,256,222.4z"/></g><g><g><path d="M256,395.4c-76.9,0-139.4-62.5-139.4-139.4S179.1,116.6,256,116.6S395.4,179.1,395.4,256      c0,6.6-5.4,12-12,12s-12-5.4-12-12c0-63.6-51.8-115.4-115.4-115.4S140.6,192.4,140.6,256S192.4,371.4,256,371.4      c30.5,0,59.3-11.8,81-33.2c4.7-4.7,12.3-4.6,17,0.1c4.7,4.7,4.6,12.3-0.1,17C327.6,381.1,292.9,395.4,256,395.4z"/></g><path d="M343,326.6c-13.6,0-24-7.6-30.9-13.6c-0.2-0.2-19.2-16.8-22.5-40.6c-0.7-5.1-0.7-17.2-0.5-36.5     c0.1-9.7,0.1-19.7-0.1-23.4c-0.4-6.6,4.7-12.3,11.3-12.7c6.6-0.4,12.3,4.7,12.7,11.3c0.3,4.4,0.2,13.9,0.1,24.9     c-0.1,11.7-0.2,29.3,0.3,33.1c1.7,12.4,11.8,23.4,14.4,25.7c6.8,5.9,11.8,8.2,16.7,7.6c11-1.2,19.6-9.3,23.7-14.1     c2.9-3.3,4.4-17.3,3.8-24.7c-0.5-6.6,4.4-12.4,11-12.9c6.6-0.5,12.4,4.4,12.9,11c0,0.3,2.1,28.9-9.7,42.4     c-6.4,7.3-20,20-39.1,22.1C345.7,326.6,344.4,326.6,343,326.6z"/></g></g></g><text x="0" y="527" fill="#000000" font-size="5px" font-weight="bold" font-family="'Helvetica Neue', Helvetica, Arial-Unicode, Arial, Sans-serif">Created by QualityIcons</text><text x="0" y="532" fill="#000000" font-size="5px" font-weight="bold" font-family="'Helvetica Neue', Helvetica, Arial-Unicode, Arial, Sans-serif">from the Noun Project</text></svg>